<?xml version="1.0" encoding="utf-8"?>
<!-- Generator: Adobe Illustrator 26.0.0, SVG Export Plug-In . SVG Version: 6.00 Build 0)  -->
<svg version="1.1" id="Ebene_1" xmlns="http://www.w3.org/2000/svg" xmlns:xlink="http://www.w3.org/1999/xlink" x="0px" y="0px"
	 viewBox="0 0 900.5 901" style="enable-background:new 0 0 900.5 901;" xml:space="preserve">
<style type="text/css">
	.st0{fill:#FFFFFF;}
</style>
<g>
	<path class="st0" d="M543.2,262.3h-89L325.8,595.8h80.5l20.9-56.7h121.5l-22-62.2h-80.2l52-143.5l92.6,262.5h80.5L543.2,262.3z"/>
	<path class="st0" d="M818.5,696.9c-6.2,0-11.7,2.9-15,7.7c0,0-16.1,18.3-24.5,27.1c-36.6,36.6-79.1,65.2-126.3,85.3
		c-49.1,20.9-101,31.1-154.8,31.1S392,837.4,343,816.9c-47.2-20.1-90.1-48.7-126.3-85.3c-36.6-36.6-65.2-79.1-85.3-126.3
		c-20.9-49.1-31.1-101-31.1-154.8s10.6-105.8,31.1-154.8c19.8-47.2,48.3-90.1,84.9-126.3c36.6-36.6,79.1-65.2,126.3-85.3
		c49.1-20.9,101-31.1,154.8-31.1s105.8,10.6,154.8,31.1c34.4,14.6,66.3,33.7,95.2,57.1c-1.5,4.4-2.6,9.5-2.6,14.6
		c0,24.9,20.1,45,45,45s45-20.1,45-45s-20.1-45-45-45c-6.2,0-12.1,1.1-17.2,3.7C697.7,52.9,602.1,16,497.5,16
		C257.7,16,63.3,210.4,63.3,450.5S257.7,885,497.8,885c134.3,0,254.1-60.8,333.9-156.7c3.3-3.3,5.5-8.1,5.5-12.8
		C836.8,705.3,828.4,696.9,818.5,696.9L818.5,696.9z"/>
</g>
</svg>
