<?xml version="1.0" encoding="utf-8"?>
<!-- Generator: Adobe Illustrator 26.0.0, SVG Export Plug-In . SVG Version: 6.00 Build 0)  -->
<svg version="1.1" id="Ebene_1" xmlns="http://www.w3.org/2000/svg" xmlns:xlink="http://www.w3.org/1999/xlink" x="0px" y="0px"
	 viewBox="0 0 100.3 101" style="enable-background:new 0 0 100.3 101;" xml:space="preserve">
<style type="text/css">
	.st0{fill:#FC521F;}
	.st1{fill:#FFFFFF;}
</style>
<g>
	<circle class="st0" cx="50.1" cy="50.1" r="50.1"/>
	<path class="st1" d="M61.9,73.2l-8-4.6l24-13.8c0.9-0.5,1.8-1.1,2.6-1.8c3.1,4.4,3.4,10.3,0.6,15.1c-2.5,4.4-7.2,7-12.2,7
		C66.5,75.1,64,74.4,61.9,73.2L61.9,73.2L61.9,73.2z M60,76.5c0.9,0.5,1.9,1,2.9,1.3c-2.3,4.9-7.2,8.1-12.8,8.1
		c-7.8,0-14.1-6.3-14.1-14.1V44.2l12.2,7v17.3c0,0.7,0.4,1.3,1,1.7L60,76.5L60,76.5z M31.3,75.1c-5,0-9.7-2.7-12.2-7
		c-1.9-3.2-2.4-7.1-1.4-10.7c1-3.6,3.3-6.7,6.6-8.5l8-4.6l0,27.6c0,1.1,0.1,2.1,0.3,3.2C32.1,75,31.7,75.1,31.3,75.1L31.3,75.1z
		 M62.3,40.9l-12.2,7l-15-8.7c-0.6-0.3-1.3-0.3-1.9,0l-10.8,6.3c-0.9,0.5-1.8,1.1-2.6,1.8c-3.1-4.4-3.4-10.3-0.6-15.1
		c2.5-4.4,7.2-7,12.2-7c2.5,0,4.9,0.7,7,1.9L62.3,40.9z M50.1,14.3c7.8,0,14.1,6.3,14.1,14.1v9.2l-24-13.8c-0.9-0.5-1.9-1-2.9-1.3
		C39.6,17.5,44.5,14.3,50.1,14.3z M81.1,32.2c3.9,6.7,1.6,15.3-5.2,19.2L52,65.3v-14l15-8.7c0.6-0.3,1-1,1-1.7V28.4
		c0-1.1-0.1-2.1-0.3-3.1C73.2,24.8,78.4,27.5,81.1,32.2z"/>
</g>
</svg>
