<?xml version="1.0" encoding="utf-8"?>
<!-- Generator: Adobe Illustrator 26.0.0, SVG Export Plug-In . SVG Version: 6.00 Build 0)  -->
<svg version="1.1" id="layer" xmlns="http://www.w3.org/2000/svg" xmlns:xlink="http://www.w3.org/1999/xlink" x="0px" y="0px"
	 viewBox="0 0 652 652" style="enable-background:new 0 0 652 652;" xml:space="preserve">
<style type="text/css">
	.st0{fill:#0071CE;}
	.st1{fill:#DC8327;}
	.st2{fill:#F4B21B;}
	.st3{fill:#F2D864;}
</style>
<g>
	<path class="st0" d="M553.6,510.8c-8.3,0-15.8-5.3-18.4-13.5c-3.4-10.1,2.3-21.4,12.4-24.8c37.2-12,61.2-44.7,61.2-82.9
		c0-48.4-39.4-87.8-87.8-87.8c-3.4,0-7.1,0.4-11.3,0.8l-19.1,2.6l-2.6-19.1c-11.6-81.8-82.9-143.4-165.5-143.4
		c-68.3,0-129.1,40.9-155,103.9l-4.9,12l-12.8,0.4c-58.9,1.1-107,49.9-107,108.8C42.9,411,68,450,106.7,468
		c9.8,4.5,14.3,16.1,9.8,25.9s-16.1,14.3-25.9,9.8C38,479.6,4.2,426.4,4.2,368.2c0-75.8,58.5-139.2,132.5-147.1
		C170.8,149.4,242.5,104,322.4,104c95.7,0,179,67.2,200.8,159.1c69,1.1,124.6,57.4,124.6,126.8c0,54.4-35.3,102.8-87.8,119.7
		C557.7,510.4,555.5,510.8,553.6,510.8z"/>
	<path class="st1" d="M255.6,519.8L255.6,519.8L255.6,519.8L255.6,519.8L255.6,519.8L255.6,519.8L255.6,519.8L255.6,519.8
		L255.6,519.8L255.6,519.8L255.6,519.8L255.6,519.8L255.6,519.8L255.6,519.8L255.6,519.8L255.6,519.8L255.6,519.8L255.6,519.8
		L255.6,519.8L255.6,519.8L255.6,519.8L255.6,519.8L255.6,519.8L255.6,519.8L255.6,519.8C255.3,519.8,255.3,519.8,255.6,519.8
		C255.3,519.8,255.3,519.8,255.6,519.8L255.6,519.8L255.6,519.8C255.3,519.8,255.3,519.8,255.6,519.8
		C255.3,519.8,255.3,519.8,255.6,519.8L255.6,519.8L255.6,519.8L255.6,519.8c-0.4,0-0.8-0.4-1.1-0.4l0,0l0,0l0,0l0,0l0,0l0,0l0,0
		l0,0l0,0l0,0l0,0l0,0l0,0l0,0l0,0l0,0l0,0l0,0l0,0l0,0l0,0l0,0l0,0c-8.3,0-15.4-6.8-15.4-15.4V332.5h13.1l0,0
		c1.9,0,3.4-1.5,3.4-3.4c0-1.5-0.8-2.6-1.9-3l-63-43.5c-1.1-0.8-2.6-0.8-3.8,0l-63.4,43.9c-1.1,0.8-1.9,2.3-1.1,3.8
		c0.4,1.5,1.9,2.3,3,2.3h13.1V504c0,12,9.8,21.4,21.8,21.8h0.4h94.2l0,0c0.8,0,1.5-0.4,2.3-0.8l0,0l0,0l0,0l0,0l0,0l0,0l0,0l0,0l0,0
		l0,0l0,0l0,0l0,0c0.8-0.8,0.8-1.5,0.8-2.3l0,0l0,0l0,0l0,0l0,0l0,0l0,0l0,0C257.5,521.7,256.8,520.5,255.6,519.8z"/>
	<path class="st2" d="M391.9,519.8L391.9,519.8L391.9,519.8L391.9,519.8L391.9,519.8L391.9,519.8L391.9,519.8L391.9,519.8
		L391.9,519.8L391.9,519.8L391.9,519.8L391.9,519.8L391.9,519.8L391.9,519.8L391.9,519.8L391.9,519.8L391.9,519.8L391.9,519.8
		L391.9,519.8L391.9,519.8L391.9,519.8L391.9,519.8L391.9,519.8L391.9,519.8L391.9,519.8L391.9,519.8L391.9,519.8L391.9,519.8
		L391.9,519.8L391.9,519.8L391.9,519.8L391.9,519.8L391.9,519.8L391.9,519.8c-0.4,0-0.8-0.4-1.1-0.4l0,0l0,0l0,0l0,0l0,0l0,0l0,0
		l0,0l0,0l0,0l0,0l0,0l0,0l0,0l0,0l0,0l0,0l0,0l0,0l0,0l0,0l0,0l0,0c-8.3,0-15.4-6.8-15.4-15.4V370.8h13.1l0,0
		c1.9,0,3.4-1.5,3.4-3.4c0-1.5-0.8-2.6-1.9-3l-63-43.5c-1.1-0.8-2.6-0.8-3.8,0l-63.8,43.9c-1.1,0.8-1.9,2.3-1.1,3.8
		c0.4,1.5,1.9,2.3,3,2.3h13.1V504c0,12,9.8,21.4,21.8,21.8h0.4h94.2l0,0c0.8,0,1.5-0.4,2.3-0.8l0,0l0,0l0,0l0,0l0,0l0,0l0,0l0,0l0,0
		l0,0l0,0l0,0l0,0c0.8-0.8,0.8-1.5,0.8-2.3l0,0l0,0l0,0l0,0l0,0l0,0l0,0l0,0C394.1,521.7,393,520.5,391.9,519.8z"/>
	<path class="st3" d="M528.5,519.8L528.5,519.8L528.5,519.8L528.5,519.8L528.5,519.8L528.5,519.8L528.5,519.8L528.5,519.8
		L528.5,519.8L528.5,519.8L528.5,519.8L528.5,519.8L528.5,519.8L528.5,519.8L528.5,519.8L528.5,519.8L528.5,519.8L528.5,519.8
		L528.5,519.8L528.5,519.8L528.5,519.8L528.5,519.8L528.5,519.8L528.5,519.8L528.5,519.8L528.5,519.8L528.5,519.8L528.5,519.8
		L528.5,519.8L528.5,519.8L528.5,519.8L528.5,519.8L528.5,519.8L528.5,519.8c-0.4,0-0.8-0.4-1.1-0.4l0,0l0,0l0,0l0,0l0,0l0,0l0,0
		l0,0l0,0l0,0l0,0l0,0l0,0l0,0l0,0l0,0l0,0l0,0l0,0l0,0l0,0l0,0l0,0c-8.3,0-15.4-6.8-15.4-15.4v-94.9h13.1l0,0
		c1.9,0,3.4-1.5,3.4-3.4c0-1.5-0.8-2.6-1.9-3l-63-43.5c-1.1-0.8-2.6-0.8-3.8,0l-63.4,43.9c-1.1,0.8-1.9,2.3-1.1,3.8
		c0.4,1.5,1.9,2.3,3,2.3h13.1V504c0,12,9.8,21.4,21.8,21.8h0.4h94.2l0,0c0.8,0,1.5-0.4,2.3-0.8l0,0l0,0l0,0l0,0l0,0l0,0l0,0l0,0l0,0
		l0,0l0,0l0,0l0,0c0.8-0.8,0.8-1.5,0.8-2.3l0,0l0,0l0,0l0,0l0,0l0,0l0,0l0,0C530.3,521.7,529.6,520.5,528.5,519.8z"/>
</g>
</svg>
