<?xml version="1.0" encoding="utf-8"?>
<!-- Generator: Adobe Illustrator 26.0.0, SVG Export Plug-In . SVG Version: 6.00 Build 0)  -->
<svg version="1.1" id="Layer_1" xmlns="http://www.w3.org/2000/svg" xmlns:xlink="http://www.w3.org/1999/xlink" x="0px" y="0px"
	 viewBox="0 0 200 200" style="enable-background:new 0 0 200 200;" xml:space="preserve">
<style type="text/css">
	.st0{fill:#FAE501;}
	.st1{fill:#4FB5E1;}
	.st2{fill:#F05751;}
	.st3{fill:#0681B6;}
	.st4{fill:#CD4739;}
</style>
<g>
	<g>
		<path class="st0" d="M72.5,138.6C62.1,128.7,56,115.3,56,100s6.1-28.9,16-38.6c8.6-8.6,8.6-22.1,0-30.7s-22.1-8.6-30.7,0
			C24,48.5,13,73.1,13,100s11.1,51.5,28.9,69.3c8.6,8.6,22.1,8.6,30.7,0C80.5,160.7,80.5,147.2,72.5,138.6z"/>
		<path class="st1" d="M72.5,61.4c9.9-10.4,23.3-16.5,38.6-16.5s28.9,6.1,38.6,16c8.6,8.6,22.1,8.6,30.7,0c8.6-8.6,8.6-22.1,0-30.7
			C162.6,12.9,138,1.9,111.1,1.9S59.6,13.1,41.8,30.8c-8.6,8.6-8.6,22.1,0,30.7C50.4,69.3,63.9,69.3,72.5,61.4z"/>
		<path class="st2" d="M149.8,138.6c-9.9,10.4-23.3,16.5-38.6,16.5s-28.9-6.1-38.6-16c-8.6-8.6-22.1-8.6-30.7,0
			c-8.6,8.6-8.6,22.1,0,30.7c17.8,17.2,42.4,28.2,69.3,28.2s51.5-11.1,69.3-28.9c8.6-8.6,8.6-22.1,0-30.7
			C171.9,130.7,158.5,130.7,149.8,138.6z"/>
		<circle class="st3" cx="57.2" cy="46" r="21.5"/>
		<circle class="st4" cx="57.2" cy="154" r="21.5"/>
	</g>
</g>
</svg>
