<?xml version="1.0" encoding="utf-8"?>
<!-- Generator: Adobe Illustrator 26.0.0, SVG Export Plug-In . SVG Version: 6.00 Build 0)  -->
<svg version="1.1" id="Layer_1" xmlns="http://www.w3.org/2000/svg" xmlns:xlink="http://www.w3.org/1999/xlink" x="0px" y="0px"
	 viewBox="0 0 72 72" style="enable-background:new 0 0 72 72;" xml:space="preserve">
<style type="text/css">
	.st0{fill-rule:evenodd;clip-rule:evenodd;fill:#4A4A4D;stroke:#FFFFFF;stroke-miterlimit:10;}
	.st1{fill-rule:evenodd;clip-rule:evenodd;fill:#FFFFFF;}
</style>
<g>
	<path class="st0" d="M36,1.6c19.3,0,34.9,15.6,34.9,34.9S55.3,71.4,36,71.4S1.1,55.8,1.1,36.5S16.7,1.6,36,1.6L36,1.6z"/>
	<path class="st1" d="M54.5,51.9c-1.3,3.9-3.2,6.9-5.8,9C46,63,42.5,64.2,38,64.6l-0.9-5.8c2.9-0.4,5.1-1,6.5-2
		c0.5-0.4,1.5-1.5,1.5-1.5l0,0L34.6,21.4h8.8l6.1,25.3l6.5-25.3h8.5L54.5,51.9L54.5,51.9z"/>
	<path class="st1" d="M23.9,20.2c2,0,3.9,0.3,5.5,0.9c1.7,0.6,3.2,1.5,4.7,2.8l-3.6,4.8c-1-0.8-2-1.3-2.9-1.7c-0.9-0.4-2-0.5-3-0.5
		c-4.3,0-6.5,3.3-6.5,10c0,3.4,0.5,5.8,1.7,7.2c1.1,1.5,2.7,2.2,4.8,2.2c1,0,2-0.1,2.9-0.5c0.9-0.4,1.9-0.9,3.2-1.7l3.6,5.1
		c-2.9,2.4-6.2,3.6-10,3.6c-3,0-5.6-0.6-7.9-1.9c-2.2-1.3-3.9-3.2-5.1-5.6c-1.1-2.4-1.8-5.2-1.8-8.5c0-3.2,0.6-6.1,1.8-8.5
		c1.1-2.5,2.9-4.4,5.1-5.8C18.5,21,21,20.2,23.9,20.2L23.9,20.2z"/>
</g>
</svg>