<?xml version="1.0" encoding="utf-8"?>
<!-- Generator: Adobe Illustrator 26.0.0, SVG Export Plug-In . SVG Version: 6.00 Build 0)  -->
<svg version="1.1" id="Layer_1" xmlns="http://www.w3.org/2000/svg" xmlns:xlink="http://www.w3.org/1999/xlink" x="0px" y="0px"
	 viewBox="0 0 354 354" style="enable-background:new 0 0 354 354;" xml:space="preserve">
<style type="text/css">
	.st0{fill:#fff;}
	.st1{fill-rule:evenodd;clip-rule:evenodd;fill:#fff;}
</style>
<g id="XMLID_229_">
	<g id="XMLID_690_">
		<g id="XMLID_691_">
			<g>
				<g id="XMLID_44_">
					<g id="XMLID_48_">
						<path id="XMLID_49_" class="st0" d="M177,339.4v-62.1c65.7,0,116.7-65.1,91.4-134.3c-9.3-25.4-29.8-45.9-55.3-55.2
							c-69.1-25-134.3,25.8-134.3,91.4l0,0H17C17,74.6,118.2-7,228,27.3c47.9,15.1,86.2,53.2,101.1,101.1
							C363.4,238.1,281.7,339.4,177,339.4z"/>
					</g>
					<polygon id="XMLID_47_" class="st1" points="177.2,277.7 115.3,277.7 115.3,215.8 115.3,215.8 177.2,215.8 177.2,215.8 					
						"/>
					<polygon id="XMLID_46_" class="st1" points="115.3,325 68,325 68,325 68,277.7 115.3,277.7 					"/>
					<path id="XMLID_45_" class="st1" d="M68,277.7H28.2l0,0v-39.7l0,0H68l0,0V277.7z"/>
				</g>
			</g>
		</g>
	</g>
</g>
</svg>
