<?xml version="1.0" encoding="utf-8"?>
<!-- Generator: Adobe Illustrator 26.0.0, SVG Export Plug-In . SVG Version: 6.00 Build 0)  -->
<svg version="1.1" id="Ebene_1" xmlns="http://www.w3.org/2000/svg" xmlns:xlink="http://www.w3.org/1999/xlink" x="0px" y="0px"
	 viewBox="0 0 79.5 80" style="enable-background:new 0 0 79.5 80;" xml:space="preserve">
<style type="text/css">
	.st0{fill:#fff;}
</style>
<g>
	<g>
		<g>
			<g>
				<path class="st0" d="M65.1,16.5c-4.7-2.2-9.8-3.8-15.1-4.7c-0.6,1.2-1.4,2.7-1.9,4c-5.6-0.8-11.2-0.8-16.7,0
					c-0.5-1.3-1.3-2.8-2-4c-5.3,0.9-10.3,2.5-15.1,4.7C4.9,30.9,2.3,44.9,3.6,58.8c6.3,4.7,12.4,7.6,18.5,9.5c1.5-2,2.8-4.2,4-6.5
					c-2.2-0.8-4.3-1.8-6.2-3c0.5-0.4,1-0.8,1.5-1.2c12,5.6,25,5.6,36.9,0c0.5,0.4,1,0.8,1.5,1.2c-2,1.2-4.1,2.2-6.2,3
					c1.1,2.3,2.5,4.5,4,6.5c6-1.9,12.2-4.7,18.5-9.5C77.4,42.7,73.3,28.8,65.1,16.5z M27.6,50.3c-3.6,0-6.6-3.4-6.6-7.5
					s2.9-7.5,6.6-7.5c3.7,0,6.6,3.4,6.6,7.5C34.2,46.9,31.3,50.3,27.6,50.3z M51.9,50.3c-3.6,0-6.6-3.4-6.6-7.5s2.9-7.5,6.6-7.5
					c3.7,0,6.6,3.4,6.6,7.5C58.4,46.9,55.5,50.3,51.9,50.3z"/>
			</g>
		</g>
	</g>
</g>
</svg>
