<?xml version="1.0" encoding="utf-8"?>
<!-- Generator: Adobe Illustrator 26.0.0, SVG Export Plug-In . SVG Version: 6.00 Build 0)  -->
<svg version="1.1" id="Ebene_1" xmlns="http://www.w3.org/2000/svg" xmlns:xlink="http://www.w3.org/1999/xlink" x="0px" y="0px"
	 viewBox="0 0 67.1 67" style="enable-background:new 0 0 67.1 67;" xml:space="preserve">
<style type="text/css">
	.st0{fill:#fff;}
	.st1{fill:#fff;}
</style>
<g>
	<path class="st0" d="M20.3,25.5l12.6-7.3c0.3-0.2,0.7-0.2,1,0l12.6,7.3c0.3,0.2,0.5,0.5,0.5,0.9v14.6c0,0.4-0.2,0.7-0.5,0.9
		L34,49.3c-0.3,0.2-0.7,0.2-1,0L20.3,42c-0.3-0.2-0.5-0.5-0.5-0.9V26.5C19.8,26,20,25.7,20.3,25.5"/>
	<path class="st1" d="M66.4,32.2L51.3,5.9c-0.5-0.9-1.6-1.7-2.7-1.7H18.3c-1.1,0-2.1,0.7-2.7,1.7l-15,26.3c-0.5,0.9-0.5,2.2,0,3.1
		l15.1,26.1c0.5,0.9,1.6,1.4,2.7,1.4h30.2c1.1,0,2.1-0.5,2.7-1.4l15.1-26.1C67,34.2,67,33.2,66.4,32.2 M53.8,44.8
		c0,0.4-0.2,0.7-0.5,0.9L34.1,56.9c-0.3,0.2-0.7,0.2-1.1,0L13.7,45.7c-0.3-0.2-0.5-0.5-0.5-0.9V22.6c0-0.4,0.2-0.7,0.5-0.9
		l19.2-11.2c0.3-0.2,0.7-0.2,1.1,0l19.2,11.1c0.3,0.2,0.5,0.5,0.6,0.9L53.8,44.8z"/>
</g>
</svg>
