<?xml version="1.0" encoding="utf-8"?>
<!-- Generator: Adobe Illustrator 26.0.0, SVG Export Plug-In . SVG Version: 6.00 Build 0)  -->
<svg version="1.1" id="Ebene_1" xmlns="http://www.w3.org/2000/svg" xmlns:xlink="http://www.w3.org/1999/xlink" x="0px" y="0px"
	 viewBox="0 0 27.6 27" style="enable-background:new 0 0 27.6 27;" xml:space="preserve">
<style type="text/css">
	.st0{fill:#fff;}
</style>
<g>
	<g>
		<g>
			<path class="st0" d="M26.5,9.2c0.8-2.4,0.3-7.2-1.2-8.9c-0.2-0.2-0.6-0.2-0.7,0.1l-1.9,2.9c-0.5,0.6-1.3,0.7-1.9,0.3
				c-2-1.3-4.4-2.1-7-2.1c-2.6,0-5,0.8-7,2.1C6.2,4,5.4,3.8,4.9,3.3L3.1,0.4C2.9,0.1,2.5,0.1,2.3,0.3c-1.5,1.8-2,6.5-1.2,8.9
				c0.3,0.8,0.3,1.6,0.2,2.5C1.2,12.5,1,13.5,1,14.2c0,7,5.7,12.7,12.8,12.7c7.1,0,12.8-5.7,12.8-12.7c0-0.7-0.2-1.7-0.3-2.5
				C26.1,10.9,26.2,10,26.5,9.2z M13.8,24c-5.5,0-9.9-4.4-9.9-9.8c0-0.2,0-0.4,0-0.5C4.1,10,6.4,6.8,9.6,5.3
				c1.3-0.6,2.7-0.9,4.2-0.9c1.5,0,2.9,0.3,4.2,0.9c3.2,1.5,5.5,4.7,5.7,8.3c0,0.2,0,0.4,0,0.5C23.7,19.6,19.2,24,13.8,24z"/>
			<path class="st0" d="M18.1,18l-2.5-4.3L13.4,10c-0.1-0.1-0.1-0.1-0.2-0.1h-2.1c-0.1,0-0.2,0.1-0.2,0.1c-0.1,0.1,0,0.2,0,0.3
				l2.1,3.5L10.1,18c-0.1,0.1-0.1,0.2,0,0.3s0.1,0.1,0.3,0.1h2.1c0.1,0,0.2,0,0.2-0.1l1.5-2.3l1.4,2.3c0.1,0.1,0.1,0.1,0.2,0.1h2.1
				c0.1,0,0.2-0.1,0.2-0.1C18.1,18.2,18.1,18.1,18.1,18z"/>
		</g>
	</g>
</g>
</svg>
