<?xml version="1.0" encoding="utf-8"?>
<!-- Generator: Adobe Illustrator 26.0.0, SVG Export Plug-In . SVG Version: 6.00 Build 0)  -->
<svg version="1.1" id="Ebene_1" xmlns="http://www.w3.org/2000/svg" xmlns:xlink="http://www.w3.org/1999/xlink" x="0px" y="0px"
	 viewBox="0 0 300 300" style="enable-background:new 0 0 300 300;" xml:space="preserve">
<style type="text/css">
	.st0{fill:#FFFFFF;}
	.st1{fill-rule:evenodd;clip-rule:evenodd;fill:#FFFFFF;}
</style>
<path class="st0" d="M124.8,223.6c28,0,48.8-16.6,48.8-44V94.4h-25.1v83.2c0,12.3-6.6,21.5-23.7,21.5c-17.1,0-23.7-9.2-23.7-21.5
	V94.4H76.2v85.2C76.2,207,97,223.6,124.8,223.6z M199.9,94.4v126.6H225V94.4H199.9z"/>
<path class="st1" d="M215,33.7H85c-28.7,0-52,23.1-52,51.7v129.2c0,28.5,23.3,51.7,52,51.7h130c28.7,0,52-23.1,52-51.7V85.4
	C267,56.8,243.7,33.7,215,33.7z M85,7.8C41.9,7.8,7,42.6,7,85.4v129.2c0,42.8,34.9,77.5,78,77.5h130c43.1,0,78-34.7,78-77.5V85.4
	c0-42.8-34.9-77.5-78-77.5H85z"/>
</svg>
