<?xml version="1.0" encoding="utf-8"?>
<!-- Generator: Adobe Illustrator 26.0.0, SVG Export Plug-In . SVG Version: 6.00 Build 0)  -->
<svg version="1.1" id="Layer_1" xmlns="http://www.w3.org/2000/svg" xmlns:xlink="http://www.w3.org/1999/xlink" x="0px" y="0px"
	 viewBox="0 0 1000 1000" style="enable-background:new 0 0 1000 1000;" xml:space="preserve">
<style type="text/css">
	.st0{fill:#9A4350;}
</style>
<path class="st0" d="M923,492.6c-0.2-58.5-39.5-109.4-96.1-124.2L950,4.9H339.2l123.6,364.7c-54.9,16-92.6,66.2-92.6,123.4
	c0,43.1,21.4,81.1,54.5,104.5c-12.9,18.3-27.9,35.2-44.7,51.4c-31.8,29.8-67,52.8-105.3,68c-34.3-23.3-49.3-64.3-35.8-100.9
	c52.2-16,90.5-65.3,90.5-122.8c-0.2-70.7-57.4-128.2-128.2-128.2c-71,0-128.4,57.6-128.4,128.4c0,35,14.4,67,37.2,90.1l-6,12.3
	c-19.1,39.5-41,84.3-49.3,134.4c-16.6,100.1,10.6,181,76.4,226.6c37,25.6,77.6,38.5,121.5,38.5c75.3,0,151.9-37.9,226-74.5
	c52.8-26.2,107.2-53.3,161-66.6c19.6-4.8,40.4-7.7,62.2-10.8c44.1-6.5,89.7-12.9,130.7-36.6c47.9-27.9,80.5-74.3,90.1-127.5
	c7.3-41,0-82.2-18.3-118.4c12.7-20.4,19.4-43.9,19.1-68L923,492.6z M867,492.6c0,39.7-32.7,72.2-72.2,72.2
	c-40.2-0.4-72.4-33.3-72-73.4c0.2-12.1,3.3-24.1,9.2-34.7c2.3-4,5.2-8.1,8.1-11.4c2.9-3.5,6.5-6.7,10-9.6l0.2-0.2
	c2.3-1.7,4.8-3.5,7.5-5.2c1.5-0.8,2.7-1.7,3.7-2.3c0.2,0,0.6-0.2,0.8-0.2c1.2-0.6,2.7-1.2,4-1.7c1.5-0.6,2.9-1.2,4-1.7
	c0.2,0,0.6-0.2,0.8-0.2c1.2-0.2,2.3-0.8,3.5-1.2c0.2,0,0.8-0.2,1.2-0.2l4-0.8h0.2l4.4-0.8c0.2,0,0.8,0,1.2-0.2
	c1.2,0,2.3-0.2,3.5-0.2h1.5c1.5,0,2.9-0.2,4.4-0.2h3.7c1,0,2.1,0,3.1,0.2h0.6c2.3,0.2,4.6,0.6,6.9,1.2c33.5,7.3,57.6,36.8,57.6,71.2
	L867,492.6z M419.1,62.1h451.1L766.7,367.6c-4.4,0.8-8.5,2.3-12.9,3.7l-109-222L535.6,369.8c-4.4-1.5-8.9-2.3-13.5-3.1L419.1,62.1z
	 M624.2,467.6c-5.2-26.4-18.9-50.6-38.7-68.9l59.3-119.8l59.9,122.3c-17.7,17.7-30.4,40.4-35.8,66.2L624.2,467.6z M480.4,422.3
	l4-0.8h0.8c1.2-0.2,2.3-0.2,3.5-0.6h1.2c1.2,0,2.1-0.2,3.1-0.2h11.2c1.2,0,2.1,0.2,2.9,0.2c0.6,0,0.8,0,1.5,0.2
	c1.2,0.2,2.1,0.2,3.1,0.6c0.2,0,0.6,0,1.2,0.2l4,0.8c1.2,0.2,2.5,0.6,3.7,1.2c0.2,0,0.6,0.2,1.2,0.2c0.8,0.2,2.1,0.6,2.9,1.2
	c0.2,0,0.6,0.2,0.8,0.2c1.2,0.6,2.3,0.8,3.5,1.5h0.2c1.2,0.4,2.5,1.2,3.7,2.1c1.5,0.6,2.7,1.5,3.7,2.1c0.2,0,0.2,0.2,0.6,0.2
	c1.2,0.6,2.1,1.5,3.1,2.1l0.2,0.2c3.3,2.7,6.7,5.4,9.8,8.3l0.2,0.2c2.9,3.1,5.6,6.7,8.1,10.4c7.7,11.9,11.9,25.6,11.7,39.5
	c0,39.7-32.7,72.2-72.2,72.2c-39.7-0.2-72-32.5-72.2-72.2C425.7,458.7,449,430.2,480.4,422.3L480.4,422.3z M198.3,420.2
	c39.7,0,72.2,32.7,72.2,72.2c-0.2,39.7-32.5,72-72.2,72.2c-39.7-0.2-72-32.5-72.2-72.2C126.3,452.7,158.6,420.6,198.3,420.2z
	 M865.2,668.8c-6.5,36.6-28.9,68.9-62.2,88c-31.2,18.1-69.7,23.7-110.1,29.5c-22.1,3.1-45.4,6.7-67.4,12.1
	C565.7,813,508.5,842,453,869.2c-71.2,35.2-138.2,68.5-200.2,68.5c-32.7,0-61.4-9.2-88.8-28.3c-63.5-43.9-60.3-125.3-52.6-170
	c6.9-41.8,26.2-81.1,44.5-118.6c1.2-2.3,2.1-4.4,3.1-6.7c6.5,2.3,13.1,4,19.8,5.2c-10.8,60.8,20,123.6,80.5,154.6l10.8,5.8l11.7-4.4
	c50.1-17.7,96.5-46.8,137.5-85.5c22.7-21.2,42.7-44.9,59.7-70.7c6.5,1,13.1,1.5,19.6,1.5C557,620.4,608,581,622.8,524.4h48.1
	c14.4,55.3,64.5,96.1,124.2,96.1c22.9,0,45.2-6.2,64.7-17.7c7.5,21.4,9.8,43.9,5.8,66.2L865.2,668.8z"/>
</svg>
