<?xml version="1.0" encoding="utf-8"?>
<!-- Generator: Adobe Illustrator 26.0.0, SVG Export Plug-In . SVG Version: 6.00 Build 0)  -->
<svg version="1.1" id="Ebene_1" xmlns="http://www.w3.org/2000/svg" xmlns:xlink="http://www.w3.org/1999/xlink" x="0px" y="0px"
	 viewBox="0 0 24.2 24" style="enable-background:new 0 0 24.2 24;" xml:space="preserve">
<style type="text/css">
	.st0{fill:#FFFFFF;}
</style>
<path class="st0" d="M12.3,24c-0.2,0-0.4-0.1-0.5-0.3c-0.1-0.2-0.1-0.4,0.1-0.5l5.7-7.8l-9.9,4c-0.1,0-0.1,0.1-0.2,0.1
	c-0.2,0-0.5-0.2-0.5-0.4c-0.1-0.2,0-0.5,0.2-0.6l8.7-5.1L0.5,12.5C0.2,12.5,0,12.3,0,12c0-0.2,0.2-0.5,0.5-0.5l15.3-0.9L7.1,5.5
	C6.9,5.4,6.8,5.1,6.9,4.9C7,4.7,7.2,4.5,7.4,4.5c0.1,0,0.1,0,0.2,0.1l9.9,4l-5.7-7.8c-0.1-0.2-0.1-0.4-0.1-0.5
	C11.9,0.1,12.1,0,12.3,0c0.1,0,0.3,0.1,0.4,0.2l11.3,11.2c0.2,0.2,0.2,0.4,0.2,0.6s-0.1,0.4-0.2,0.6L12.7,23.8
	C12.6,23.9,12.4,24,12.3,24z"/>
</svg>
