<?xml version="1.0" encoding="utf-8"?>
<!-- Generator: Adobe Illustrator 26.0.0, SVG Export Plug-In . SVG Version: 6.00 Build 0)  -->
<svg version="1.1" id="Ebene_1" xmlns="http://www.w3.org/2000/svg" xmlns:xlink="http://www.w3.org/1999/xlink" x="0px" y="0px"
	 viewBox="0 0 41.3 41" style="enable-background:new 0 0 41.3 41;" xml:space="preserve">
<style type="text/css">
	.st0{fill:#fff;}
	.st1{fill:#fff;}
</style>
<g>
	<path class="st0" d="M9.6,29.8l-3.4,2c-0.5,0.3-0.3,0.8,0,0.9l13.2,7.4c0.8,0.4,1.7,0.4,2.5,0l13.4-7.5c0.4-0.2,0.3-0.7,0-0.9
		l-3.6-1.9c-0.3-0.2-1-0.1-1.2,0l-8.6,4.8c-0.8,0.4-1.7,0.4-2.5,0l-8.6-4.8C10.4,29.6,9.9,29.7,9.6,29.8z"/>
	<path class="st0" d="M19.4,0.8c0.8-0.4,1.7-0.4,2.5,0c0,0,10,5.6,10.6,5.9c0.4,0.2,0.5,0.8,0,1c-0.7,0.4-1.6,0.9-2.4,1.3
		c-0.9,0.5-2,0.5-2.9,0l-5.3-3c-0.8-0.4-1.7-0.4-2.5,0l-5.3,3c-0.9,0.5-2,0.5-2.9,0c-0.8-0.5-1.8-1-2.5-1.4c-0.4-0.2-0.5-0.7,0-1
		L19.4,0.8z"/>
	<path class="st1" d="M37.3,9.8c0.8,0.4,1.3,1.2,1.3,2.1v17.2c0,0.9-0.5,1-1.1,0.7l-3.9-2.1V16.1L22,22.6c-0.8,0.4-1.7,0.4-2.5,0
		L7.8,16.1v11.6l-3.6,2.1c-0.4,0.3-1.5,0.4-1.5-0.7V11.9c0-0.9,0.5-1.7,1.3-2.1c1.3-0.7,2.5,0,2.5,0l14.1,7.9l14-7.9
		C34.7,9.8,35.9,9,37.3,9.8z"/>
</g>
</svg>
