<?xml version="1.0" encoding="utf-8"?>
<!-- Generator: Adobe Illustrator 26.0.0, SVG Export Plug-In . SVG Version: 6.00 Build 0)  -->
<svg version="1.1" id="Layer_1" xmlns="http://www.w3.org/2000/svg" xmlns:xlink="http://www.w3.org/1999/xlink" x="0px" y="0px"
	 viewBox="0 0 789.1 790.7" style="enable-background:new 0 0 789.1 790.7;" xml:space="preserve">
<style type="text/css">
	.st0{fill:#ED4B59;}
	.st1{fill:#F0684E;}
</style>
<g>
	<circle class="st0" cx="94.6" cy="395.8" r="79.2"/>
	<g>
		<g>
			<circle class="st1" cx="694.5" cy="145.1" r="79.2"/>
			<path class="st1" d="M94.3,66.5h365.3c43.5,0,78.9,35.2,78.9,78.7v0.1c0,43.5-35.2,78.9-78.7,78.9c0,0,0,0-0.1,0H94.3
				c-43.7,0-78.9-35.4-78.9-78.9l0,0C15.4,101.9,50.8,66.5,94.3,66.5L94.3,66.5z"/>
		</g>
		<g>
			<path class="st1" d="M329.2,317h365.4c43.5,0,78.9,35.4,78.9,78.9v0.1c0,43.5-35.4,78.9-78.9,78.9H329.2
				c-43.5,0-78.9-35.4-78.9-78.9v-0.1C250.3,352.4,285.7,317,329.2,317z"/>
			<circle class="st1" cx="694.5" cy="645.6" r="79.2"/>
			<path class="st1" d="M94.3,566.4h365.4c43.5,0,78.9,35.4,78.9,78.9v0.1c0,43.5-35.4,78.9-78.9,78.9H94.3
				c-43.5,0-78.9-35.4-78.9-78.9v-0.1C15.4,601.8,50.8,566.4,94.3,566.4z"/>
		</g>
	</g>
</g>
</svg>
