<?xml version="1.0" encoding="utf-8"?>
<!-- Generator: Adobe Illustrator 26.0.0, SVG Export Plug-In . SVG Version: 6.00 Build 0)  -->
<svg version="1.1" id="layer" xmlns="http://www.w3.org/2000/svg" xmlns:xlink="http://www.w3.org/1999/xlink" x="0px" y="0px"
	 viewBox="0 0 652 652" style="enable-background:new 0 0 652 652;" xml:space="preserve">
<style type="text/css">
	.st0{fill-rule:evenodd;clip-rule:evenodd;fill:#06B6D4;}
</style>
<path class="st0" d="M326,125.8c-86.8,0-141.4,43.6-162.9,130.4c32.7-43.6,70.5-59.9,114.1-48.9c24.7,6.3,42.6,24.2,62,44.2
	c32.1,32.7,68.9,70,149.8,70c86.8,0,141.4-43.6,162.9-130.4c-32.5,43.6-70.5,59.9-114.1,48.9c-24.7-6.3-42.6-24.2-62-44.2
	C443.8,163.1,406.9,125.8,326,125.8L326,125.8z M162.9,320.9C76.2,320.9,21.6,364.5,0,451.3c32.7-43.6,70.5-59.9,114.1-48.9
	c24.7,6.3,42.6,24.2,62,44.2c32,32.7,68.9,70,149.8,70c86.8,0,141.4-43.6,162.9-130.4c-32.5,43.6-70.5,59.9-114.1,48.9
	c-24.7-6.3-42.6-24.2-62-44.2C280.8,358.7,244,320.9,162.9,320.9L162.9,320.9z"/>
</svg>
