<?xml version="1.0" encoding="utf-8"?>
<!-- Generator: Adobe Illustrator 26.0.0, SVG Export Plug-In . SVG Version: 6.00 Build 0)  -->
<svg version="1.1" id="Ebene_1" xmlns="http://www.w3.org/2000/svg" xmlns:xlink="http://www.w3.org/1999/xlink" x="0px" y="0px"
	 viewBox="0 0 35 35" style="enable-background:new 0 0 35 35;" xml:space="preserve">
<style type="text/css">
	.st0{fill:#FFFFFF;}
</style>
<g>
	<path class="st0" d="M33.4,11.7C33.4,5.4,30,1.6,23.3,0c3.4,2.3,4.6,5.1,3.8,8.2c-0.5,1.8-1.9,3-3.4,4.4c-2.5,2.3-5.4,4.9-5.4,10.7
		c0,6.2,3.4,10.1,10.1,11.7c-3.4-2.3-4.6-5.1-3.8-8.2c0.5-1.8,1.9-3,3.4-4.4C30.5,20.1,33.4,17.4,33.4,11.7L33.4,11.7z"/>
	<path class="st0" d="M1.6,11.7c0-6.3,3.3-10.1,10-11.7C8.3,2.3,7,5.1,7.8,8.2c0.5,1.8,1.9,3,3.4,4.4c2.5,2.3,5.4,4.9,5.4,10.7
		c0,6.2-3.4,10.1-10.1,11.7c3.4-2.3,4.6-5.1,3.8-8.2c-0.5-1.8-1.9-3-3.4-4.4C4.5,20.1,1.6,17.4,1.6,11.7L1.6,11.7z"/>
</g>
</svg>
